<svg width="96" height="96" xmlns="http://www.w3.org/2000/svg" xmlns:xlink="http://www.w3.org/1999/xlink" overflow="hidden"><defs><clipPath id="clip0"><rect x="542" y="695" width="96" height="96"/></clipPath></defs><g clip-path="url(#clip0)" transform="translate(-542 -695)"><path d="M590.28 775C594.665 771.538 598.848 767.829 602.81 763.89 608.553 758.419 613.631 752.29 617.94 745.63 621.94 739.19 625.76 730.83 623.13 723.19 621 716.87 615.09 711.5 608.3 710.85 599.72 710 593.51 717.26 590 724.21 586.79 717.85 581.48 711.29 573.81 710.81 567 710.39 560.66 715.18 557.73 721.13 554.06 728.6 557.05 737 560.91 743.71 564.91 750.71 570.23 756.86 575.85 762.55 580.28 767.083 585.007 771.315 590 775.22ZM574 741 577 732 578.78 726.65C579.24 725.26 579.95 723.4 581.87 724.2 583.03 724.69 583.1 725.89 583.3 726.94L584.13 731.37 586.53 744.17 588.12 752.67 593.92 737.33 595.2 733.95C595.57 732.95 595.95 731.95 597.2 731.84 598.79 731.68 599.26 733.04 599.61 734.24L600.84 738.46 603.28 746.85 605.69 744.2C606.461 743.191 607.328 742.26 608.28 741.42 609.28 740.72 611.13 741.04 612.28 741.04L616 741.04C615.26 742.37 614.44 743.71 613.55 745.04L610.3 745.04C608.17 747.39 606.13 749.89 603.87 752.12 603.161 752.967 601.9 753.079 601.053 752.37 600.886 752.231 600.743 752.065 600.63 751.88 600.413 751.45 600.255 750.992 600.16 750.52L598.49 744.81 597.13 740.13C594.58 746.86 592.13 753.6 589.5 760.3 589.353 760.846 589.034 761.33 588.59 761.68 587.68 762.305 586.435 762.074 585.809 761.164 585.649 760.931 585.541 760.668 585.49 760.39 585.26 759.47 585.14 758.51 584.96 757.59L582.43 744.09 580.54 734 577.72 742.47C577.29 743.73 576.95 744.96 575.33 745.04 573.86 745.11 572.38 745.04 570.92 745.04L566.42 745.04C565.54 743.71 564.71 742.37 563.97 741.04Z"/></g></svg>