<svg width="205" height="205" xmlns="http://www.w3.org/2000/svg" xmlns:xlink="http://www.w3.org/1999/xlink" xml:space="preserve" overflow="hidden"><defs><clipPath id="clip0"><rect x="91" y="83" width="205" height="205"/></clipPath></defs><g clip-path="url(#clip0)" transform="translate(-91 -83)"><path d="M164.864 220.542 140.478 196.177 164.864 171.812 170.886 177.834 152.564 196.177 170.886 214.52 164.864 220.542Z"/><path d="M222.136 220.542 216.114 214.52 234.436 196.177 216.114 177.834 222.136 171.812 246.522 196.177 222.136 220.542Z"/><path d="M179.196 220.354 199.626 171.056 207.517 174.326 187.086 223.624Z"/><path d="M108.083 119.302 108.083 251.698 278.917 251.698 278.917 119.302ZM255.427 132.115C257.786 132.115 259.698 134.027 259.698 136.385 259.698 138.744 257.786 140.656 255.427 140.656 253.068 140.656 251.156 138.744 251.156 136.385 251.156 134.027 253.068 132.115 255.427 132.115ZM240.479 132.115C242.838 132.115 244.75 134.027 244.75 136.385 244.75 138.744 242.838 140.656 240.479 140.656 238.12 140.656 236.208 138.744 236.208 136.385 236.208 134.027 238.12 132.115 240.479 132.115ZM225.531 132.115C227.89 132.115 229.802 134.027 229.802 136.385 229.802 138.744 227.89 140.656 225.531 140.656 223.172 140.656 221.26 138.744 221.26 136.385 221.26 134.027 223.172 132.115 225.531 132.115ZM266.104 238.885 120.896 238.885 120.896 153.469 266.104 153.469Z"/></g></svg>