<svg width="96" height="96" xmlns="http://www.w3.org/2000/svg" xmlns:xlink="http://www.w3.org/1999/xlink" overflow="hidden"><defs><clipPath id="clip0"><rect x="184" y="517" width="96" height="96"/></clipPath></defs><g clip-path="url(#clip0)" transform="translate(-184 -517)"><path d="M256.585 544.585 251.696 549.474 246.807 544.585 243.979 547.413 248.868 552.302 243.979 557.191 246.807 560.02 251.696 555.13 256.585 560.02 259.414 557.191 254.524 552.302 259.414 547.413 256.585 544.585Z"/><path d="M233.315 556.8C233.657 556.247 234.06 555.733 234.515 555.268L232.384 553.156C231.775 553.776 231.235 554.462 230.775 555.2 230.607 555.465 230.46 555.743 230.333 556.03L233.083 557.23C233.149 557.081 233.227 556.937 233.315 556.8Z"/><path d="M238.952 553.091 238.526 550.122C237.381 550.282 236.268 550.62 235.226 551.122L236.539 553.822C237.301 553.455 238.115 553.208 238.952 553.091Z"/><path d="M230.435 560.17C230.973 561.204 231.68 562.141 232.525 562.944L234.669 560.844C234.059 560.271 233.543 559.604 233.14 558.87Z"/><path d="M244.356 550.578C243.555 550.329 242.73 550.161 241.895 550.078L241.569 553.061C242.188 553.123 242.799 553.243 243.396 553.419Z"/><path d="M239.807 571.6 242.6 570.5C242.19 569.466 241.664 568.482 241.032 567.566L238.553 569.256C239.058 569.987 239.479 570.774 239.807 571.6Z"/><path d="M214.749 584.994C214.797 585.003 215.964 585.194 217.814 585.402L218.141 582.42C216.387 582.228 215.261 582.039 215.25 582.037Z"/><path d="M220.864 585.673C221.901 585.744 222.933 585.793 223.929 585.817L224.001 582.817C223.049 582.795 222.063 582.749 221.07 582.681Z"/><path d="M232.646 582.229 233.219 585.175C234.27 584.974 235.306 584.701 236.319 584.356L235.338 581.521C234.458 581.82 233.559 582.056 232.646 582.229Z"/><path d="M237.741 580.4 239.341 582.938C240.355 582.312 241.241 581.501 241.954 580.547L239.529 578.779C239.041 579.427 238.434 579.978 237.741 580.4Z"/><path d="M240.44 574.115C240.487 574.528 240.511 574.943 240.511 575.359 240.511 575.545 240.511 575.733 240.498 575.924 240.486 576.174 240.458 576.423 240.416 576.67L243.372 577.184C243.435 576.817 243.476 576.445 243.494 576.073 243.506 575.831 243.511 575.594 243.511 575.359 243.511 574.827 243.48 574.296 243.419 573.768Z"/><path d="M236.793 562.874 234.745 565.065C235.411 565.688 236.122 566.365 236.806 567.101L239 565.058C238.253 564.252 237.465 563.5 236.793 562.874Z"/><path d="M226.921 582.813 227.009 585.813C228.092 585.781 229.134 585.713 230.109 585.621L229.816 582.635C228.909 582.723 227.935 582.783 226.921 582.813Z"/><path d="M219.733 558.999 221.733 558.999 221.733 556.632 225.468 556.632 220.734 544.797 216 556.632 219.733 556.632 219.733 558.999Z"/><path d="M255.114 577.142 256.714 577.142 252.857 567.999 249 577.142 250.599 577.142 248 582.571 251.857 582.571 251.857 584.999 253.857 584.999 253.857 582.571 257.714 582.571 255.114 577.142Z"/><path d="M228 575.999 228 577.999 230 577.999 230 575.999 233 575.999 229 565.999 226 573.499 223 565.999 219 575.999 222 575.999 222 577.999 224 577.999 224 575.999 225 575.999 227 575.999 228 575.999Z"/><path d="M262.445 533 211 533 211 523 201 523C196.584 523.005 193.005 526.584 193 531L193 589C193.005 593.416 196.584 596.995 201 597L253 597 253 607 263 607C267.416 606.995 270.995 603.416 271 599L271 541C270.837 536.433 267.013 532.857 262.445 533ZM199 531C199 529.895 199.895 529 201 529L205 529 205 581 201 581C200.325 581 199.653 581.085 199 581.253ZM199 589C199 587.895 199.895 587 201 587L211 587 211 539 262.445 539C263.692 538.883 264.814 539.761 265 541L265 591 201 591C199.895 591 199 590.105 199 589ZM265 599C265 600.105 264.105 601 263 601L259 601 259 597 265 597Z"/></g></svg>