<svg width="96" height="96" xmlns="http://www.w3.org/2000/svg" xmlns:xlink="http://www.w3.org/1999/xlink" overflow="hidden"><defs><clipPath id="clip0"><rect x="1016" y="683" width="96" height="96"/></clipPath></defs><g clip-path="url(#clip0)" transform="translate(-1016 -683)"><path d="M1092 701C1092 705.418 1079.46 709 1064 709 1048.54 709 1036 705.418 1036 701 1036 696.582 1048.54 693 1064 693 1079.46 693 1092 696.582 1092 701Z"/><path d="M1084 721C1082.8 721 1082 720.2 1082 719 1082 717.8 1082.8 717 1084 717 1085.2 717 1086 717.8 1086 719 1086 720.2 1085.2 721 1084 721ZM1064 713C1048.6 713 1036 709.4 1036 705L1036 721C1036 725.4 1048.6 729 1064 729 1079.4 729 1092 725.4 1092 721L1092 705C1092 709.4 1079.4 713 1064 713Z"/><path d="M1084 741C1082.8 741 1082 740.2 1082 739 1082 737.8 1082.8 737 1084 737 1085.2 737 1086 737.8 1086 739 1086 740.2 1085.2 741 1084 741ZM1064 733C1048.6 733 1036 729.4 1036 725L1036 741C1036 745.4 1048.6 749 1064 749 1079.4 749 1092 745.4 1092 741L1092 725C1092 729.4 1079.4 733 1064 733Z"/><path d="M1084 761C1082.8 761 1082 760.2 1082 759 1082 757.8 1082.8 757 1084 757 1085.2 757 1086 757.8 1086 759 1086 760.2 1085.2 761 1084 761ZM1064 753C1048.6 753 1036 749.4 1036 745L1036 761C1036 765.4 1048.6 769 1064 769 1079.4 769 1092 765.4 1092 761L1092 745C1092 749.4 1079.4 753 1064 753Z"/></g></svg>