<svg width="96" height="96" xmlns="http://www.w3.org/2000/svg" xmlns:xlink="http://www.w3.org/1999/xlink" overflow="hidden"><defs><clipPath id="clip0"><rect x="1397" y="49" width="96" height="96"/></clipPath></defs><g clip-path="url(#clip0)" transform="translate(-1397 -49)"><path d="M1411 89 1425 89 1425 103 1411 103Z"/><path d="M1465 89 1479 89 1479 103 1465 103Z"/><path d="M1411 62 1425 62 1425 76 1411 76Z"/><path d="M1411 116 1425 116 1425 130 1411 130Z"/><path d="M1447 67 1429 67 1429 71 1443 71 1443 94 1429 94 1429 98 1443 98 1443 121 1429 121 1429 125 1447 125 1447 98 1461 98 1461 94 1447 94 1447 67Z"/></g></svg>